<svg xmlns="http://www.w3.org/2000/svg" width="90.809" height="14.768" viewBox="0 0 90.809 14.768">
  <path id="Divider" d="M10.792,1.349a7.27,7.27,0,0,0,5.183-2.2,6.866,6.866,0,0,0,2.13-5.183,6.806,6.806,0,0,0-2.059-5.112,7.458,7.458,0,0,0-5.254-2.272,7.2,7.2,0,0,0-5.183,2.2,7.231,7.231,0,0,0-2.2,5.183,7.231,7.231,0,0,0,2.2,5.183A7.2,7.2,0,0,0,10.792,1.349Zm38.056,0a7.27,7.27,0,0,0,5.183-2.2,6.866,6.866,0,0,0,2.13-5.183A6.806,6.806,0,0,0,54.1-11.147a7.458,7.458,0,0,0-5.254-2.272,7.2,7.2,0,0,0-5.183,2.2,7.231,7.231,0,0,0-2.2,5.183,7.231,7.231,0,0,0,2.2,5.183A7.2,7.2,0,0,0,48.848,1.349Zm38.056,0a7.27,7.27,0,0,0,5.183-2.2,6.866,6.866,0,0,0,2.13-5.183,6.806,6.806,0,0,0-2.059-5.112A7.458,7.458,0,0,0,86.9-13.419a7.2,7.2,0,0,0-5.183,2.2,7.231,7.231,0,0,0-2.2,5.183,7.231,7.231,0,0,0,2.2,5.183A7.2,7.2,0,0,0,86.9,1.349Z" transform="translate(-3.408 13.419)" fill="#eee3cd"/>
</svg>
